<svg width="25" height="463" viewBox="0 0 25 463" fill="none" xmlns="http://www.w3.org/2000/svg">
<path opacity="0.5" d="M23.4734 18.3807C23.4734 18.8026 23.3953 19.201 23.2391 19.576C23.0828 19.951 22.8563 20.2908 22.5594 20.5955L18.2234 24.9197L13.8875 20.5955C13.5906 20.2986 13.3641 19.9627 13.2078 19.5877C13.0516 19.2127 12.9734 18.8104 12.9734 18.3807C12.9734 17.951 13.0555 17.5447 13.2195 17.1619C13.3836 16.7791 13.6063 16.4471 13.8875 16.1658C14.1688 15.8846 14.4969 15.658 14.8719 15.4861C15.2469 15.3143 15.657 15.2322 16.1024 15.2401C16.493 15.2401 16.8719 15.3065 17.2391 15.4393C17.6063 15.5721 17.9344 15.7791 18.2234 16.0604C18.5203 15.7869 18.8484 15.5838 19.2078 15.451C19.5672 15.3182 19.9461 15.2479 20.3445 15.2401C20.7742 15.2401 21.1805 15.3221 21.5633 15.4861C21.9461 15.6502 22.2781 15.8729 22.5594 16.1541C22.8406 16.4354 23.0633 16.7713 23.2274 17.1619C23.3914 17.5526 23.4734 17.9588 23.4734 18.3807ZM21.9734 18.3807C21.9734 18.1541 21.9305 17.9432 21.8445 17.7479C21.7586 17.5526 21.6414 17.3768 21.493 17.2205C21.3445 17.0643 21.1727 16.9471 20.9774 16.869C20.782 16.7908 20.5672 16.7479 20.3328 16.7401C19.8875 16.7401 19.5047 16.9002 19.1844 17.2205L18.2234 18.1815L17.2625 17.2205C17.1063 17.0643 16.9305 16.9471 16.7352 16.869C16.5399 16.7908 16.3328 16.7479 16.1141 16.7401C15.8875 16.7401 15.6766 16.783 15.4813 16.869C15.2859 16.9549 15.1102 17.0721 14.9539 17.2205C14.7977 17.369 14.6805 17.5408 14.6024 17.7361C14.5242 17.9315 14.4813 18.1463 14.4734 18.3807C14.4734 18.826 14.6336 19.2088 14.9539 19.5291L18.2234 22.7986L21.493 19.5291C21.8133 19.2088 21.9734 18.826 21.9734 18.3807ZM3.97345 23.4901H14.1336L15.6453 24.9901H2.47345V3.99005H8.47345C8.47345 3.57599 8.55157 3.18927 8.70782 2.8299C8.86407 2.47052 9.07892 2.15021 9.35236 1.86896C9.62579 1.58771 9.9422 1.37286 10.3016 1.22443C10.6609 1.07599 11.0516 0.997864 11.4734 0.990051C11.8875 0.990051 12.2742 1.06818 12.6336 1.22443C12.993 1.38068 13.3133 1.59552 13.5945 1.86896C13.8758 2.1424 14.0906 2.4588 14.2391 2.81818C14.3875 3.17755 14.4656 3.56818 14.4734 3.99005H20.4734V13.3768H20.4149C20.3992 13.3768 20.3758 13.3729 20.3445 13.3651C20.1102 13.3651 19.8797 13.3846 19.6531 13.4236C19.4266 13.4627 19.2 13.5135 18.9734 13.576V5.49005H17.4734V8.49005H5.47345V5.49005H3.97345V23.4901ZM6.97345 5.49005V6.99005H15.9734V5.49005H12.9734V3.99005C12.9734 3.67755 12.8914 3.40411 12.7274 3.16974C12.5633 2.93536 12.3406 2.74786 12.0594 2.60724C11.8797 2.52911 11.6844 2.49005 11.4734 2.49005C11.2625 2.49005 11.0672 2.52911 10.8875 2.60724C10.6063 2.74005 10.3836 2.92365 10.2195 3.15802C10.0555 3.3924 9.97345 3.66974 9.97345 3.99005V5.49005H6.97345Z" fill="white"/>
<path opacity="0.5" d="M11.4852 78.0366L9.98517 79.5366H6.97345C6.14532 79.5366 5.36798 79.3803 4.64142 79.0678C3.91486 78.7553 3.28204 78.3256 2.74298 77.7788C2.20392 77.2319 1.77423 76.5952 1.45392 75.8686C1.13361 75.142 0.97345 74.3647 0.97345 73.5366C0.97345 72.7084 1.1297 71.9311 1.4422 71.2045C1.7547 70.478 2.18439 69.8452 2.73126 69.3061C3.27814 68.767 3.91486 68.3373 4.64142 68.017C5.36798 67.6967 6.14532 67.5366 6.97345 67.5366C7.33282 67.5366 7.69611 67.5717 8.06329 67.642C8.37579 67.1577 8.73517 66.7241 9.14142 66.3413C9.54767 65.9584 9.99689 65.6342 10.4891 65.3686C10.9813 65.103 11.4969 64.8959 12.0359 64.7475C12.575 64.5991 13.1375 64.5288 13.7234 64.5366C14.4734 64.5366 15.1922 64.6538 15.8797 64.8881C16.5672 65.1225 17.2 65.4584 17.7781 65.8959C18.3563 66.3334 18.8484 66.8491 19.2547 67.4428C19.6609 68.0366 19.9774 68.7006 20.2039 69.435C19.9539 69.5913 19.7274 69.7748 19.5242 69.9858C19.3211 70.1967 19.1141 70.4077 18.9031 70.6186C18.8172 69.9623 18.6258 69.3569 18.3289 68.8022C18.032 68.2475 17.6492 67.7631 17.1805 67.3491C16.7117 66.935 16.1844 66.6147 15.5984 66.3881C15.0125 66.1616 14.3875 66.0444 13.7234 66.0366C13.2313 66.0366 12.7586 66.103 12.3055 66.2358C11.8524 66.3686 11.4266 66.5561 11.0281 66.7983C10.6297 67.0405 10.2664 67.3373 9.93829 67.6889C9.61017 68.0405 9.32892 68.4272 9.09454 68.8491L8.80157 69.3881C8.5047 69.2866 8.20782 69.2045 7.91095 69.142C7.61407 69.0795 7.30157 69.0444 6.97345 69.0366C6.34845 69.0366 5.76642 69.1538 5.22736 69.3881C4.68829 69.6225 4.21173 69.9428 3.79767 70.3491C3.38361 70.7553 3.05939 71.2358 2.82501 71.7905C2.59064 72.3452 2.47345 72.9272 2.47345 73.5366C2.47345 74.1616 2.59064 74.7436 2.82501 75.2827C3.05939 75.8217 3.3797 76.2983 3.78595 76.7123C4.1922 77.1264 4.66876 77.4506 5.21564 77.685C5.76251 77.9194 6.34845 78.0366 6.97345 78.0366H11.4852ZM24.9734 72.8569C24.9734 73.1616 24.9149 73.4584 24.7977 73.7475C24.6805 74.0366 24.5125 74.2905 24.2938 74.5092L15.8914 82.9116L11.4734 84.0131L12.575 79.5952L20.9774 71.2045C21.2039 70.978 21.4578 70.81 21.7391 70.7006C22.0203 70.5913 22.3172 70.5366 22.6297 70.5366C22.9578 70.5366 23.2625 70.5952 23.5438 70.7123C23.825 70.8295 24.075 70.9897 24.2938 71.1928C24.5125 71.3959 24.6766 71.642 24.7859 71.9311C24.8953 72.2202 24.9578 72.5288 24.9734 72.8569ZM23.4734 72.8569C23.4734 72.6147 23.3953 72.4194 23.2391 72.2709C23.0828 72.1225 22.8797 72.0444 22.6297 72.0366C22.5203 72.0366 22.4149 72.0522 22.3133 72.0834C22.2117 72.1147 22.1219 72.1733 22.0438 72.2592L13.9344 80.3686L13.5359 81.9506L15.118 81.5522L23.2274 73.4545C23.3914 73.2905 23.4734 73.0913 23.4734 72.8569Z" fill="white"/>
<path opacity="0.5" d="M24.2703 144.559H22.7703C22.7703 143.942 22.6531 143.36 22.4188 142.813C22.1844 142.266 21.8641 141.79 21.4578 141.383C21.0516 140.977 20.5711 140.653 20.0164 140.411C19.4617 140.168 18.8797 140.051 18.2703 140.059C17.6453 140.059 17.0594 140.176 16.5125 140.411C15.9656 140.645 15.4891 140.965 15.0828 141.372C14.6766 141.778 14.3563 142.254 14.1219 142.801C13.8875 143.348 13.7703 143.934 13.7703 144.559H12.2703C12.2703 143.989 12.3484 143.438 12.5047 142.907C12.6609 142.375 12.8836 141.875 13.1727 141.407C13.4617 140.938 13.8094 140.516 14.2156 140.141C14.6219 139.766 15.0828 139.446 15.5984 139.18C15.0125 138.743 14.5633 138.215 14.2508 137.598C13.9383 136.981 13.7781 136.301 13.7703 135.559C13.7703 134.934 13.8875 134.348 14.1219 133.801C14.3563 133.254 14.6766 132.778 15.0828 132.372C15.4891 131.965 15.9656 131.645 16.5125 131.411C17.0594 131.176 17.6453 131.059 18.2703 131.059C18.8875 131.059 19.4695 131.176 20.0164 131.411C20.5633 131.645 21.0399 131.965 21.4461 132.372C21.8524 132.778 22.1766 133.258 22.4188 133.813C22.6609 134.368 22.7781 134.95 22.7703 135.559C22.7703 136.286 22.6141 136.961 22.3016 137.586C21.9891 138.211 21.5359 138.743 20.9422 139.18C21.45 139.43 21.907 139.743 22.3133 140.118C22.7195 140.493 23.0711 140.918 23.368 141.395C23.6649 141.872 23.8875 142.375 24.0359 142.907C24.1844 143.438 24.2625 143.989 24.2703 144.559ZM21.2703 135.559C21.2703 135.145 21.1922 134.758 21.0359 134.399C20.8797 134.04 20.6649 133.719 20.3914 133.438C20.118 133.157 19.8016 132.942 19.4422 132.793C19.0828 132.645 18.6922 132.567 18.2703 132.559C17.8563 132.559 17.4695 132.637 17.1102 132.793C16.7508 132.95 16.4305 133.165 16.1492 133.438C15.868 133.711 15.6531 134.028 15.5047 134.387C15.3563 134.747 15.2781 135.137 15.2703 135.559C15.2703 135.973 15.3484 136.36 15.5047 136.719C15.6609 137.079 15.8758 137.399 16.1492 137.68C16.4227 137.961 16.7391 138.176 17.0984 138.325C17.4578 138.473 17.8484 138.551 18.2703 138.559C18.6844 138.559 19.0711 138.481 19.4305 138.325C19.7899 138.168 20.1102 137.954 20.3914 137.68C20.6727 137.407 20.8875 137.09 21.0359 136.731C21.1844 136.372 21.2625 135.981 21.2703 135.559ZM13.7586 131.059H9.39923L11.9305 139.918C11.7274 140.207 11.5477 140.493 11.3914 140.774C11.2352 141.055 11.0906 141.364 10.9578 141.7L1.67657 130.274L7.96954 123.559H16.5711L22.8641 130.274L22.4539 130.778C22.1258 130.504 21.7938 130.266 21.4578 130.063C21.1219 129.86 20.7508 129.692 20.3445 129.559H20.4383L16.2313 125.059H14.7313L16.3953 129.5C15.8797 129.641 15.407 129.84 14.9774 130.098C14.5477 130.356 14.1414 130.672 13.7586 131.047V131.059ZM13.3719 125.059H11.1688L9.48126 129.559H15.0594L13.3719 125.059ZM8.30939 125.059L4.10236 129.559H8.12189L9.80939 125.059H8.30939ZM10.3016 138.875L8.06329 131.059H3.95001L10.3016 138.875Z" fill="white"/>
<path opacity="0.5" d="M21.3582 204.355L24.0067 207.015L22.952 208.07L20.2918 205.421L17.6317 208.082L16.577 207.015L19.2371 204.355L16.577 201.695L17.6317 200.64L20.2918 203.3L22.952 200.64L24.0067 201.707L21.3582 204.355ZM16.5887 204.355L13.9285 207.003L15.0184 208.105H4.19025C3.87775 208.105 3.58478 208.046 3.31134 207.929C3.0379 207.812 2.79962 207.652 2.5965 207.449C2.39337 207.246 2.23322 207.007 2.11603 206.734C1.99884 206.46 1.94025 206.167 1.94025 205.855C1.94025 205.644 1.96368 205.445 2.01056 205.257C2.05743 205.07 2.13947 204.886 2.25665 204.707L8.92462 193.082C8.96368 193.011 8.99103 192.949 9.00665 192.894C9.02228 192.839 9.034 192.769 9.04181 192.683V185.605H7.54181V184.105H16.5418V185.605H15.0418V192.683C15.0418 192.769 15.0496 192.839 15.0652 192.894C15.0809 192.949 15.1121 193.015 15.159 193.093L17.8426 197.781L16.741 198.871L13.8582 193.843C13.7567 193.664 13.6785 193.476 13.6238 193.281C13.5692 193.085 13.5418 192.886 13.5418 192.683V185.605H10.5418V192.683C10.5418 192.886 10.5145 193.085 10.4598 193.281C10.4051 193.476 10.327 193.664 10.2254 193.843L6.3465 200.605H15.0184L13.9285 201.695L16.5887 204.355Z" fill="white"/>
<path opacity="0.5" d="M2.88947 252.081V256.604C2.88947 257.495 2.99493 258.35 3.20587 259.17C3.41681 259.991 3.70978 260.78 4.08478 261.538C4.45978 262.295 4.909 263.018 5.43243 263.706C5.95587 264.393 6.51837 265.042 7.11993 265.651C7.7215 266.26 8.36603 266.834 9.05353 267.374C9.74103 267.913 10.4285 268.413 11.116 268.874C10.952 269.272 10.8699 269.682 10.8699 270.104C10.8699 270.252 10.8817 270.401 10.9051 270.549C10.0926 270.042 9.29181 269.487 8.50275 268.885C7.71368 268.284 6.96759 267.639 6.26447 266.952C5.56134 266.264 4.9129 265.526 4.31915 264.737C3.7254 263.948 3.20978 263.127 2.77228 262.276C2.33478 261.424 1.99493 260.518 1.75275 259.557C1.51056 258.596 1.38947 257.612 1.38947 256.604V250.604C2.0379 250.604 2.66681 250.581 3.27618 250.534C3.88556 250.487 4.48322 250.401 5.06915 250.276C5.65509 250.151 6.22931 249.975 6.79181 249.749C7.35431 249.522 7.9129 249.225 8.46759 248.858C9.11603 248.436 9.77618 248.131 10.4481 247.944C11.1199 247.756 11.8465 247.659 12.6277 247.651C13.409 247.651 14.1395 247.749 14.8192 247.944C15.4988 248.139 16.1668 248.448 16.8231 248.87C17.3777 249.229 17.9363 249.522 18.4988 249.749C19.0613 249.975 19.6317 250.151 20.2098 250.276C20.7879 250.401 21.3856 250.487 22.0027 250.534C22.6199 250.581 23.2488 250.604 23.8895 250.604V256.604H22.3895V252.081C21.5848 252.042 20.8582 251.944 20.2098 251.788C19.5613 251.631 18.9598 251.44 18.4051 251.213C17.8504 250.987 17.3348 250.756 16.8582 250.522C16.3817 250.288 15.9168 250.061 15.4637 249.842C15.0106 249.624 14.5535 249.456 14.0926 249.338C13.6317 249.221 13.1473 249.151 12.6395 249.127C12.1238 249.127 11.6395 249.194 11.1863 249.327C10.7332 249.459 10.2762 249.631 9.81525 249.842C9.35431 250.053 8.88556 250.276 8.409 250.51C7.93243 250.745 7.42072 250.979 6.87384 251.213C6.32697 251.448 5.7254 251.635 5.06915 251.776C4.4129 251.917 3.68634 252.018 2.88947 252.081ZM24.5574 270.104C24.5574 270.307 24.5184 270.499 24.4402 270.678C24.3621 270.858 24.2527 271.014 24.1121 271.147C23.9715 271.28 23.8113 271.389 23.6317 271.475C23.452 271.561 23.2606 271.604 23.0574 271.604H14.2215C14.0184 271.604 13.827 271.565 13.6473 271.487C13.4676 271.409 13.3113 271.299 13.1785 271.159C13.0457 271.018 12.9363 270.858 12.8504 270.678C12.7645 270.499 12.7215 270.307 12.7215 270.104C12.7215 269.924 12.7957 269.639 12.9442 269.249C13.0926 268.858 13.2879 268.409 13.5301 267.901C13.7723 267.393 14.034 266.866 14.3152 266.319C14.5965 265.772 14.8777 265.245 15.159 264.737C15.4402 264.229 15.6863 263.772 15.8973 263.366C16.1082 262.959 16.2723 262.647 16.3895 262.428V259.604H14.8895V258.104H22.3895V259.604H20.8895V262.428C20.991 262.639 21.1512 262.948 21.3699 263.354C21.5887 263.76 21.8387 264.217 22.1199 264.725C22.4012 265.233 22.6824 265.764 22.9637 266.319C23.2449 266.874 23.5067 267.401 23.7488 267.901C23.991 268.401 24.1824 268.846 24.3231 269.237C24.4637 269.627 24.5418 269.917 24.5574 270.104ZM19.3895 259.604H17.8895V262.78L15.7215 267.104H21.5574L19.3895 262.78V259.604Z" fill="white"/>
<path opacity="0.5" d="M12.9734 311.15C14.075 311.15 15.1375 311.291 16.1609 311.572C17.1844 311.853 18.1414 312.255 19.032 312.779C19.9227 313.302 20.7313 313.927 21.4578 314.654C22.1844 315.38 22.8094 316.193 23.3328 317.091C23.8563 317.99 24.2586 318.947 24.5399 319.962C24.8211 320.978 24.9656 322.041 24.9734 323.15C24.9734 324.251 24.8328 325.314 24.5516 326.337C24.2703 327.361 23.868 328.318 23.3445 329.208C22.8211 330.099 22.1961 330.908 21.4695 331.634C20.743 332.361 19.9305 332.986 19.032 333.509C18.1336 334.033 17.1766 334.435 16.1609 334.716C15.1453 334.998 14.0828 335.142 12.9734 335.15C11.8719 335.15 10.8094 335.009 9.78595 334.728C8.76251 334.447 7.80548 334.044 6.91486 333.521C6.02423 332.998 5.21564 332.373 4.48907 331.646C3.76251 330.919 3.13751 330.107 2.61407 329.208C2.09064 328.31 1.68829 327.357 1.40704 326.349C1.12579 325.341 0.981262 324.275 0.97345 323.15C0.97345 322.048 1.11407 320.986 1.39532 319.962C1.67657 318.939 2.07892 317.982 2.60236 317.091C3.12579 316.201 3.75079 315.392 4.47736 314.666C5.20392 313.939 6.01642 313.314 6.91486 312.791C7.81329 312.267 8.76642 311.865 9.77423 311.583C10.782 311.302 11.8484 311.158 12.9734 311.15ZM22.4539 318.65C22.157 318.017 21.7977 317.423 21.3758 316.869C20.9539 316.314 20.4852 315.802 19.9695 315.333C19.4539 314.865 18.8953 314.455 18.2938 314.103C17.6922 313.751 17.0633 313.458 16.407 313.224C16.6883 313.615 16.9422 314.029 17.1688 314.466C17.3953 314.904 17.5945 315.353 17.7664 315.814C17.9383 316.275 18.0906 316.748 18.2234 317.232C18.3563 317.716 18.4656 318.189 18.5516 318.65H22.4539ZM23.4734 323.15C23.4734 322.111 23.3289 321.111 23.0399 320.15H18.7859C18.8484 320.65 18.8953 321.146 18.9266 321.638C18.9578 322.13 18.9734 322.634 18.9734 323.15C18.9734 323.658 18.9578 324.158 18.9266 324.65C18.8953 325.142 18.8484 325.642 18.7859 326.15H23.0399C23.3289 325.189 23.4734 324.189 23.4734 323.15ZM12.9734 333.65C13.3563 333.65 13.7117 333.544 14.0399 333.333C14.368 333.123 14.6766 332.845 14.9656 332.501C15.2547 332.158 15.5047 331.771 15.7156 331.341C15.9266 330.912 16.1258 330.47 16.3133 330.017C16.5008 329.564 16.6453 329.134 16.7469 328.728C16.8484 328.322 16.9383 327.962 17.0164 327.65H8.93048C8.99298 327.955 9.08282 328.314 9.20001 328.728C9.3172 329.142 9.46173 329.572 9.63361 330.017C9.80548 330.462 10.0008 330.9 10.2195 331.33C10.4383 331.759 10.6922 332.15 10.9813 332.501C11.2703 332.853 11.575 333.13 11.8953 333.333C12.2156 333.537 12.575 333.642 12.9734 333.65ZM17.2742 326.15C17.3367 325.65 17.3836 325.154 17.4149 324.662C17.4461 324.169 17.4656 323.666 17.4734 323.15C17.4734 322.642 17.4578 322.142 17.4266 321.65C17.3953 321.158 17.3445 320.658 17.2742 320.15H8.67267C8.61017 320.65 8.56329 321.146 8.53204 321.638C8.50079 322.13 8.48126 322.634 8.47345 323.15C8.47345 323.658 8.48907 324.158 8.52032 324.65C8.55157 325.142 8.60236 325.642 8.67267 326.15H17.2742ZM2.47345 323.15C2.47345 324.189 2.61798 325.189 2.90704 326.15H7.16095C7.09845 325.65 7.05157 325.154 7.02032 324.662C6.98907 324.169 6.97345 323.666 6.97345 323.15C6.97345 322.642 6.98907 322.142 7.02032 321.65C7.05157 321.158 7.09845 320.658 7.16095 320.15H2.90704C2.61798 321.111 2.47345 322.111 2.47345 323.15ZM12.9734 312.65C12.5906 312.65 12.2352 312.755 11.907 312.966C11.5789 313.177 11.2703 313.455 10.9813 313.798C10.6922 314.142 10.4422 314.529 10.2313 314.958C10.0203 315.388 9.82111 315.83 9.63361 316.283C9.44611 316.736 9.30157 317.166 9.20001 317.572C9.09845 317.978 9.00861 318.337 8.93048 318.65H17.0164C16.9539 318.345 16.8641 317.986 16.7469 317.572C16.6297 317.158 16.4852 316.728 16.3133 316.283C16.1414 315.837 15.9461 315.4 15.7274 314.97C15.5086 314.541 15.2547 314.15 14.9656 313.798C14.6766 313.447 14.3719 313.169 14.0516 312.966C13.7313 312.763 13.3719 312.658 12.9734 312.65ZM9.53986 313.224C8.88361 313.451 8.2547 313.744 7.65314 314.103C7.05157 314.462 6.49298 314.873 5.97736 315.333C5.46173 315.794 4.99298 316.302 4.57111 316.857C4.14923 317.412 3.78986 318.009 3.49298 318.65H7.39532C7.48907 318.181 7.59845 317.708 7.72345 317.232C7.84845 316.755 7.99689 316.287 8.16876 315.826C8.34064 315.365 8.54376 314.912 8.77814 314.466C9.01251 314.021 9.26642 313.607 9.53986 313.224ZM3.49298 327.65C3.78986 328.283 4.14923 328.876 4.57111 329.431C4.99298 329.986 5.46173 330.498 5.97736 330.966C6.49298 331.435 7.05157 331.845 7.65314 332.197C8.2547 332.548 8.88361 332.841 9.53986 333.076C9.25861 332.685 9.0047 332.271 8.77814 331.833C8.55157 331.396 8.35236 330.947 8.18048 330.486C8.00861 330.025 7.85626 329.552 7.72345 329.068C7.59064 328.583 7.48126 328.111 7.39532 327.65H3.49298ZM16.407 333.076C17.0633 332.849 17.6922 332.556 18.2938 332.197C18.8953 331.837 19.4539 331.427 19.9695 330.966C20.4852 330.505 20.9539 329.998 21.3758 329.443C21.7977 328.888 22.157 328.291 22.4539 327.65H18.5516C18.4578 328.119 18.3484 328.591 18.2234 329.068C18.0984 329.544 17.95 330.013 17.7781 330.474C17.6063 330.935 17.4031 331.388 17.1688 331.833C16.9344 332.279 16.6805 332.693 16.407 333.076Z" fill="white"/>
<path opacity="0.5" d="M12.9734 374.696C14.075 374.696 15.1375 374.836 16.1609 375.118C17.1844 375.399 18.1414 375.801 19.032 376.325C19.9227 376.848 20.7313 377.473 21.4578 378.2C22.1844 378.926 22.8094 379.739 23.3328 380.637C23.8563 381.536 24.2586 382.493 24.5399 383.508C24.8211 384.524 24.9656 385.586 24.9734 386.696C24.9734 387.797 24.8328 388.86 24.5516 389.883C24.2703 390.907 23.868 391.864 23.3445 392.754C22.8211 393.645 22.1961 394.454 21.4695 395.18C20.743 395.907 19.9305 396.532 19.032 397.055C18.1336 397.579 17.1766 397.981 16.1609 398.262C15.1453 398.543 14.0828 398.688 12.9734 398.696C11.8719 398.696 10.8094 398.555 9.78595 398.274C8.76251 397.993 7.80548 397.59 6.91486 397.067C6.02423 396.543 5.21564 395.918 4.48907 395.192C3.76251 394.465 3.13751 393.653 2.61407 392.754C2.09064 391.856 1.68829 390.903 1.40704 389.895C1.12579 388.887 0.981262 387.821 0.97345 386.696C0.97345 385.594 1.11407 384.532 1.39532 383.508C1.67657 382.485 2.07892 381.528 2.60236 380.637C3.12579 379.747 3.75079 378.938 4.47736 378.211C5.20392 377.485 6.01642 376.86 6.91486 376.336C7.81329 375.813 8.76642 375.411 9.77423 375.129C10.782 374.848 11.8484 374.704 12.9734 374.696ZM12.9734 397.196C13.9344 397.196 14.8602 397.071 15.7508 396.821C16.6414 396.571 17.4774 396.219 18.2586 395.766C19.0399 395.313 19.7508 394.762 20.3914 394.114C21.032 393.465 21.5789 392.758 22.032 391.993C22.4852 391.227 22.8406 390.391 23.0984 389.485C23.3563 388.579 23.4813 387.649 23.4734 386.696C23.4734 385.735 23.3484 384.809 23.0984 383.918C22.8484 383.028 22.4969 382.192 22.0438 381.411C21.5906 380.629 21.0399 379.918 20.3914 379.278C19.743 378.637 19.0359 378.09 18.2703 377.637C17.5047 377.184 16.6688 376.829 15.7625 376.571C14.8563 376.313 13.9266 376.188 12.9734 376.196C12.4656 376.196 11.9656 376.231 11.4734 376.301V397.09C11.9656 397.161 12.4656 397.196 12.9734 397.196Z" fill="white"/>
<path opacity="0.5" d="M12.9734 438.722C14.075 438.722 15.1375 438.862 16.1609 439.144C17.1844 439.425 18.1414 439.827 19.032 440.351C19.9227 440.874 20.7313 441.499 21.4578 442.226C22.1844 442.952 22.8094 443.765 23.3328 444.663C23.8563 445.562 24.2586 446.519 24.5399 447.534C24.8211 448.55 24.9656 449.612 24.9734 450.722C24.9734 451.823 24.8328 452.886 24.5516 453.909C24.2703 454.933 23.868 455.89 23.3445 456.78C22.8211 457.671 22.1961 458.48 21.4695 459.206C20.743 459.933 19.9305 460.558 19.032 461.081C18.1336 461.605 17.1766 462.007 16.1609 462.288C15.1453 462.569 14.0828 462.714 12.9734 462.722C12.5594 462.722 12.1727 462.644 11.8133 462.487C11.4539 462.331 11.1375 462.116 10.8641 461.843C10.5906 461.569 10.3758 461.253 10.2195 460.894C10.0633 460.534 9.98126 460.144 9.97345 459.722C9.97345 459.339 10.0086 459.007 10.0789 458.726C10.1492 458.444 10.243 458.183 10.3602 457.941C10.4774 457.698 10.5984 457.48 10.7234 457.284C10.8484 457.089 10.9695 456.886 11.0867 456.675C11.2039 456.464 11.2938 456.245 11.3563 456.019C11.4188 455.792 11.4578 455.526 11.4734 455.222C11.4734 454.816 11.3953 454.429 11.2391 454.062C11.0828 453.694 10.868 453.378 10.5945 453.112C10.3211 452.847 10.0008 452.632 9.63361 452.468C9.26642 452.304 8.8797 452.222 8.47345 452.222C8.17657 452.222 7.91486 452.257 7.68829 452.327C7.46173 452.398 7.24298 452.491 7.03204 452.609C6.82111 452.726 6.61407 452.847 6.41095 452.972C6.20782 453.097 5.98907 453.218 5.7547 453.335C5.52032 453.452 5.25861 453.542 4.96954 453.605C4.68048 453.667 4.34845 453.706 3.97345 453.722C3.55939 453.722 3.17267 453.644 2.81329 453.487C2.45392 453.331 2.13751 453.116 1.86407 452.843C1.59064 452.569 1.37579 452.253 1.21954 451.894C1.06329 451.534 0.981262 451.144 0.97345 450.722C0.97345 449.62 1.11407 448.558 1.39532 447.534C1.67657 446.511 2.07892 445.554 2.60236 444.663C3.12579 443.773 3.75079 442.964 4.47736 442.237C5.20392 441.511 6.01642 440.886 6.91486 440.362C7.81329 439.839 8.76642 439.437 9.77423 439.155C10.782 438.874 11.8484 438.73 12.9734 438.722ZM12.9734 461.222C13.9344 461.222 14.8602 461.097 15.7508 460.847C16.6414 460.597 17.4774 460.245 18.2586 459.792C19.0399 459.339 19.7508 458.788 20.3914 458.14C21.032 457.491 21.5789 456.784 22.032 456.019C22.4852 455.253 22.8406 454.417 23.0984 453.511C23.3563 452.605 23.4813 451.675 23.4734 450.722C23.4734 449.761 23.3484 448.835 23.0984 447.944C22.8484 447.054 22.4969 446.218 22.0438 445.437C21.5906 444.655 21.0399 443.944 20.3914 443.304C19.743 442.663 19.0359 442.116 18.2703 441.663C17.5047 441.21 16.6688 440.855 15.7625 440.597C14.8563 440.339 13.9266 440.214 12.9734 440.222C12.0125 440.222 11.0867 440.347 10.1961 440.597C9.30548 440.847 8.46954 441.198 7.68829 441.651C6.90704 442.105 6.19611 442.655 5.55548 443.304C4.91486 443.952 4.36798 444.659 3.91486 445.425C3.46173 446.191 3.10626 447.026 2.84845 447.933C2.59064 448.839 2.46564 449.769 2.47345 450.722C2.47345 450.933 2.51251 451.128 2.59064 451.308C2.66876 451.487 2.77423 451.644 2.90704 451.776C3.03986 451.909 3.20001 452.019 3.38751 452.105C3.57501 452.191 3.77032 452.23 3.97345 452.222C4.27032 452.222 4.53204 452.187 4.75861 452.116C4.98517 452.046 5.20392 451.952 5.41486 451.835C5.62579 451.718 5.82892 451.597 6.02423 451.472C6.21954 451.347 6.43439 451.226 6.66876 451.109C6.90314 450.991 7.16486 450.901 7.45392 450.839C7.74298 450.776 8.08282 450.737 8.47345 450.722C9.09845 450.722 9.68439 450.839 10.2313 451.073C10.7781 451.308 11.2547 451.628 11.6609 452.034C12.0672 452.441 12.3875 452.917 12.6219 453.464C12.8563 454.011 12.9734 454.597 12.9734 455.222C12.9734 455.605 12.9383 455.941 12.868 456.23C12.7977 456.519 12.7039 456.78 12.5867 457.015C12.4695 457.249 12.3484 457.464 12.2234 457.659C12.0984 457.855 11.9774 458.058 11.8602 458.269C11.743 458.48 11.6531 458.698 11.5906 458.925C11.5281 459.151 11.4891 459.417 11.4734 459.722C11.4734 459.933 11.5125 460.128 11.5906 460.308C11.6688 460.487 11.7742 460.644 11.907 460.776C12.0399 460.909 12.2 461.019 12.3875 461.105C12.575 461.191 12.7703 461.23 12.9734 461.222ZM6.97345 446.222C7.18439 446.222 7.3797 446.261 7.55939 446.339C7.73907 446.417 7.89532 446.523 8.02814 446.655C8.16095 446.788 8.27032 446.948 8.35626 447.136C8.4422 447.323 8.48126 447.519 8.47345 447.722C8.47345 447.933 8.43439 448.128 8.35626 448.308C8.27814 448.487 8.17267 448.644 8.03986 448.776C7.90704 448.909 7.74689 449.019 7.55939 449.105C7.37189 449.191 7.17657 449.23 6.97345 449.222C6.76251 449.222 6.5672 449.183 6.38751 449.105C6.20782 449.026 6.05157 448.921 5.91876 448.788C5.78595 448.655 5.67657 448.495 5.59064 448.308C5.5047 448.12 5.46564 447.925 5.47345 447.722C5.47345 447.511 5.51251 447.316 5.59064 447.136C5.66876 446.956 5.77423 446.8 5.90704 446.667C6.03986 446.534 6.20001 446.425 6.38751 446.339C6.57501 446.253 6.77032 446.214 6.97345 446.222ZM11.4734 443.222C11.6844 443.222 11.8797 443.261 12.0594 443.339C12.2391 443.417 12.3953 443.523 12.5281 443.655C12.6609 443.788 12.7703 443.948 12.8563 444.136C12.9422 444.323 12.9813 444.519 12.9734 444.722C12.9734 444.933 12.9344 445.128 12.8563 445.308C12.7781 445.487 12.6727 445.644 12.5399 445.776C12.407 445.909 12.2469 446.019 12.0594 446.105C11.8719 446.191 11.6766 446.23 11.4734 446.222C11.2625 446.222 11.0672 446.183 10.8875 446.105C10.7078 446.026 10.5516 445.921 10.4188 445.788C10.2859 445.655 10.1766 445.495 10.0906 445.308C10.0047 445.12 9.96564 444.925 9.97345 444.722C9.97345 444.511 10.0125 444.316 10.0906 444.136C10.1688 443.956 10.2742 443.8 10.407 443.667C10.5399 443.534 10.7 443.425 10.8875 443.339C11.075 443.253 11.2703 443.214 11.4734 443.222ZM17.4734 447.722C17.2625 447.722 17.0672 447.683 16.8875 447.605C16.7078 447.526 16.5516 447.421 16.4188 447.288C16.2859 447.155 16.1766 446.995 16.0906 446.808C16.0047 446.62 15.9656 446.425 15.9734 446.222C15.9734 446.011 16.0125 445.816 16.0906 445.636C16.1688 445.456 16.2742 445.3 16.407 445.167C16.5399 445.034 16.7 444.925 16.8875 444.839C17.075 444.753 17.2703 444.714 17.4734 444.722C17.6844 444.722 17.8797 444.761 18.0594 444.839C18.2391 444.917 18.3953 445.023 18.5281 445.155C18.6609 445.288 18.7703 445.448 18.8563 445.636C18.9422 445.823 18.9813 446.019 18.9734 446.222C18.9734 446.433 18.9344 446.628 18.8563 446.808C18.7781 446.987 18.6727 447.144 18.5399 447.276C18.407 447.409 18.2469 447.519 18.0594 447.605C17.8719 447.691 17.6766 447.73 17.4734 447.722ZM18.9734 450.722C19.1844 450.722 19.3797 450.761 19.5594 450.839C19.7391 450.917 19.8953 451.023 20.0281 451.155C20.1609 451.288 20.2703 451.448 20.3563 451.636C20.4422 451.823 20.4813 452.019 20.4734 452.222C20.4734 452.433 20.4344 452.628 20.3563 452.808C20.2781 452.987 20.1727 453.144 20.0399 453.276C19.907 453.409 19.7469 453.519 19.5594 453.605C19.3719 453.691 19.1766 453.73 18.9734 453.722C18.7625 453.722 18.5672 453.683 18.3875 453.605C18.2078 453.526 18.0516 453.421 17.9188 453.288C17.7859 453.155 17.6766 452.995 17.5906 452.808C17.5047 452.62 17.4656 452.425 17.4734 452.222C17.4734 452.011 17.5125 451.816 17.5906 451.636C17.6688 451.456 17.7742 451.3 17.907 451.167C18.0399 451.034 18.2 450.925 18.3875 450.839C18.575 450.753 18.7703 450.714 18.9734 450.722ZM15.9734 455.222C16.1844 455.222 16.3797 455.261 16.5594 455.339C16.7391 455.417 16.8953 455.523 17.0281 455.655C17.1609 455.788 17.2703 455.948 17.3563 456.136C17.4422 456.323 17.4813 456.519 17.4734 456.722C17.4734 456.933 17.4344 457.128 17.3563 457.308C17.2781 457.487 17.1727 457.644 17.0399 457.776C16.907 457.909 16.7469 458.019 16.5594 458.105C16.3719 458.191 16.1766 458.23 15.9734 458.222C15.7625 458.222 15.5672 458.183 15.3875 458.105C15.2078 458.026 15.0516 457.921 14.9188 457.788C14.7859 457.655 14.6766 457.495 14.5906 457.308C14.5047 457.12 14.4656 456.925 14.4734 456.722C14.4734 456.511 14.5125 456.316 14.5906 456.136C14.6688 455.956 14.7742 455.8 14.907 455.667C15.0399 455.534 15.2 455.425 15.3875 455.339C15.575 455.253 15.7703 455.214 15.9734 455.222Z" fill="white"/>
</svg>
